<svg xmlns="http://www.w3.org/2000/svg" version="1.1" xmlns:xlink="http://www.w3.org/1999/xlink" xmlns:svgjs="http://svgjs.dev/svgjs" width="2000" height="2250" viewBox="0 0 2000 2250"><g transform="matrix(1,0,0,1,0.0005875000000514774,0)">
<svg viewBox="0 0 320 360" data-background-color="#000000" preserveAspectRatio="xMidYMid meet" height="2250" width="2000" xmlns="http://www.w3.org/2000/svg" xmlns:xlink="http://www.w3.org/1999/xlink"><g id="tight-bounds" transform="matrix(1,0,0,1,-0.000046999999995023245,0)">
<svg viewBox="0 0 320 360" height="360" width="320"><rect width="320.000141" height="360" fill="url(#a0ef3fbe-72d8-47a4-8026-d51416b2bc7c)" mask="url(#461b9bf4-91cb-4a39-b6e9-031094ba29a5)" data-fill-palette-color="tertiary">
</rect><g><svg></svg></g><g><svg viewBox="0 0 320 360" height="360" width="320"><g><path transform="translate(-74.99272,-51.79039) scale(4.65793,4.65793)" d="M20.6 59.9l0.8 1-0.4-1.3c-0.1-0.6-0.8 0.1-0.4 0.3M21.5 59.3c0.3 0.5 0.6 1 0.6 1.5 0 0.7 0.6 1 1.1 1.2-0.7-0.8-1.1-3-1.7-2.7M59.9 16.9c1.7 0 3.3-0.2 5.1 0.2 4.4 1.1 8.1 3.3 10.6 6.4l7 11.2c0.3 2.8 0.9 5.9 0.8 9.3 0.7 0 0.6-1 1.4-1.2-0.8 2-1.2 4.5-1.4 7.4-0.5-1.6 0-4 0.1-5.3-0.7 1.1-1.1 0.3-1.1-0.2 0.1-0.8-0.3-0.7-0.6-1-1.1-1-1.8-2.1-2.6-3.8 0.5-1.3 0.6-3.2-1-4.2-0.5-0.3-1.1-0.8-1.4-1.6-0.4-1.1-1.1-2.4-0.9-4.1 0.1-0.5-1.5 1.1-2.4 0.4-3.9-2.7-7.8-5.8-12.5-8.4-2.5 0-4.3-0.9-5.2-2-0.8-1-0.2-2.3 1-2.4 0.7 0 1.5-0.2 2.1 0.2 0.1-0.4 0.5-0.9 1-0.9M50 14.6l0.2 0.1c1 0.2 1.5 1.6 2.6 1.1 0 0.7 0.1 1.4-0.1 1.9-0.3 0.8-1.2 0.8-1.9 0.8-6.7-0.4-10.6 2.4-14.7 4.8-1.1 0.7-2.3 1.2-3.2 2.1-4.3 4-9 7.7-10.1 15.1l-0.9 8.2c-0.1 0.9-1.1 1.8-0.9 2.9l0.7 4.9c-0.7-0.7-1.1 0.2-0.9 0.6 0.1 0.3 0.5 1.3 1.1 0.4 0.8 1.5 1.6 4.4 2.7 5.7 3.4 4 7.8 7.6 11.4 11.2 0.9-0.2 1.6-0.2 1.8-0.8 0.3 0.6-0.3 1.2-0.8 1.3 1.6 1 3.4 1.9 5.8 2.1 3.1 0.2 6 0.7 8.7 1.4 1.4-0.4 2.8-0.6 4.3-0.7 0.5 0 0.8-0.8 1.4-1l0.1-1c0.6 0.9 0.5-0.3 0.1-0.9 0.7 0.6 0.9 1.1 1.2 1.5 0-0.3 0.8-1.4 0.8-0.1l0.2-1.3c0.3-0.2 0.4 1.1 0.7 0.2 0.3-0.9 0.9-0.2 1.5-0.5-0.2 0.4-0.1 1.2 0.6 0.7l0.8-0.7c0.5 1.2 1.3 0.7 1.7 0.5 4.4-2.8 8.8-6.1 13-9.4l-0.1 1.3 0.5-1.6c0.5 0.5 0.9 0.1 1.1-0.2 0.6-1 1.4-2 2.7-2.9-1.6 4.3-3.5 7.7-5.9 10.5l-1 1.2c0 0.7-0.2 1.6-1 1.7-0.4 0.1-1.2-0.2-1.8 0.4-0.3 0.4 0.7 1.2-0.1 0.6-0.7-0.5-1.4 0-2.2 0.2-0.6 0.2 0.4 0.8 0.6 1.2 0.2 0.4 0.4 0.8 0.3 1.3l-1.1-1.2c-1.3 0.7-2.1 2-3.2 3-0.5 0.4-0.3 1.1-0.3 1.7-0.7 0-1.5-0.2-1.9 0.2-0.3 0.4-0.2 1-0.2 1.6-1-0.1-1.1-1.6-2-1.3-0.9 0.2-1.9 0.3-2.7 0.8 0.6 1.2-1 0.5-0.8 0.7-1.5-0.9-2.8-1.6-4.4-1-3.4-1.1-7.6-0.6-10.7-0.2 0-0.5 0.1-1-0.1-1.1-0.2 0.5-0.8 0.3-0.7 0.3-1.9-1.3-3.8-2.1-5.8-3.2-1.8 0.2-3.5-0.7-4-1.2-1.4-1.3-3-0.6-4.3-0.9-2.8-0.7-3.8-3.6-4.1-5.6-0.2-1-1-1.4-1.3-1.3-1.3-4.2-3.3-8-4.9-11.9-0.4-1-0.3-2-0.3-3.1 0.5 0.2 1 0.1 0.9-0.6-0.5-3.3-1.7-5.8-3-8.2 0.7-3.4 0.8-7.4 2.4-10.4 1.4-2.7 4-4.1 5.8-6.4 0.6-0.8 0.6-1.9 1.2-2.6 2-2 4-4.1 6.2-5.9 1-0.8 2.2 0 3.7-0.3 0.5-1.8 2.5-3.4 4.4-2.9 0.8 0.2 2.4-1.9 2.9-2.1 0.8-0.3 0.4 0.8 0.4 1.5 1.9-1.5 4.5-2.3 6.9-3.2" fill="url(#a0ef3fbe-72d8-47a4-8026-d51416b2bc7c)" fill-rule="nonzero" stroke="none" stroke-width="1" stroke-linecap="butt" stroke-linejoin="miter" stroke-miterlimit="10" stroke-dasharray="" stroke-dashoffset="0" font-family="none" font-weight="none" font-size="none" text-anchor="none" style="mix-blend-mode: normal" data-fill-palette-color="tertiary"></path>
</g><g transform="matrix(1,0,0,1,123.02727027056677,90)"><svg viewBox="0 0 73.94545945886645 180" height="180" width="73.94545945886645"><g><svg viewBox="0 0 73.94545945886645 180" height="180" width="73.94545945886645"><g><svg viewBox="0 0 146.88963210702343 357.5626410702341" height="180" width="73.94545945886645"><g transform="matrix(1,0,0,1,0,177.56264107023415)"><svg viewBox="0 0 146.88963210702343 180" height="180" width="146.88963210702343"><g id="textblocktransform"><svg viewBox="0 0 146.88963210702343 180" height="180" width="146.88963210702343" id="textblock"><g><svg viewBox="0 0 146.88963210702343 180" height="180" width="146.88963210702343"><g transform="matrix(1,0,0,1,0,0)"><svg width="146.88963210702343" viewBox="1.8 -35.2 36.6 44.85" height="180" data-palette-color="url(#a0e18fa6-cf5c-46a5-a3ab-484378b9a962)"></svg></g></svg></g></svg></g></svg></g><g transform="matrix(1,0,0,1,28.055919732441467,0)"><svg viewBox="0 0 90.7777926421405 151.29632107023414" height="151.29632107023414" width="90.7777926421405"><g><svg xmlns="http://www.w3.org/2000/svg" xmlns:xlink="http://www.w3.org/1999/xlink" version="1.1" x="0" y="0" viewBox="14 2 36 60" style="enable-background:new 0 0 64 64;" xml:space="preserve" height="151.29632107023414" width="90.7777926421405" class="icon-icon-0" data-fill-palette-color="accent" id="icon-0">
</svg></g></svg></g><g></g></svg></g></svg></g></svg></g></svg></g><defs></defs><mask id="3608dc76-3275-4c68-b469-fd013c36e808"><g id="SvgjsG1434"><svg viewBox="0 0 320 360" height="360" width="320"><g><svg></svg></g><g><svg viewBox="0 0 320 360" height="360" width="320"><g><path transform="translate(-74.99272,-51.79039) scale(4.65793,4.65793)" d="M20.6 59.9l0.8 1-0.4-1.3c-0.1-0.6-0.8 0.1-0.4 0.3M21.5 59.3c0.3 0.5 0.6 1 0.6 1.5 0 0.7 0.6 1 1.1 1.2-0.7-0.8-1.1-3-1.7-2.7M59.9 16.9c1.7 0 3.3-0.2 5.1 0.2 4.4 1.1 8.1 3.3 10.6 6.4l7 11.2c0.3 2.8 0.9 5.9 0.8 9.3 0.7 0 0.6-1 1.4-1.2-0.8 2-1.2 4.5-1.4 7.4-0.5-1.6 0-4 0.1-5.3-0.7 1.1-1.1 0.3-1.1-0.2 0.1-0.8-0.3-0.7-0.6-1-1.1-1-1.8-2.1-2.6-3.8 0.5-1.3 0.6-3.2-1-4.2-0.5-0.3-1.1-0.8-1.4-1.6-0.4-1.1-1.1-2.4-0.9-4.1 0.1-0.5-1.5 1.1-2.4 0.4-3.9-2.7-7.8-5.8-12.5-8.4-2.5 0-4.3-0.9-5.2-2-0.8-1-0.2-2.3 1-2.4 0.7 0 1.5-0.2 2.1 0.2 0.1-0.4 0.5-0.9 1-0.9M50 14.6l0.2 0.1c1 0.2 1.5 1.6 2.6 1.1 0 0.7 0.1 1.4-0.1 1.9-0.3 0.8-1.2 0.8-1.9 0.8-6.7-0.4-10.6 2.4-14.7 4.8-1.1 0.7-2.3 1.2-3.2 2.1-4.3 4-9 7.7-10.1 15.1l-0.9 8.2c-0.1 0.9-1.1 1.8-0.9 2.9l0.7 4.9c-0.7-0.7-1.1 0.2-0.9 0.6 0.1 0.3 0.5 1.3 1.1 0.4 0.8 1.5 1.6 4.4 2.7 5.7 3.4 4 7.8 7.6 11.4 11.2 0.9-0.2 1.6-0.2 1.8-0.8 0.3 0.6-0.3 1.2-0.8 1.3 1.6 1 3.4 1.9 5.8 2.1 3.1 0.2 6 0.7 8.7 1.4 1.4-0.4 2.8-0.6 4.3-0.7 0.5 0 0.8-0.8 1.4-1l0.1-1c0.6 0.9 0.5-0.3 0.1-0.9 0.7 0.6 0.9 1.1 1.2 1.5 0-0.3 0.8-1.4 0.8-0.1l0.2-1.3c0.3-0.2 0.4 1.1 0.7 0.2 0.3-0.9 0.9-0.2 1.5-0.5-0.2 0.4-0.1 1.2 0.6 0.7l0.8-0.7c0.5 1.2 1.3 0.7 1.7 0.5 4.4-2.8 8.8-6.1 13-9.4l-0.1 1.3 0.5-1.6c0.5 0.5 0.9 0.1 1.1-0.2 0.6-1 1.4-2 2.7-2.9-1.6 4.3-3.5 7.7-5.9 10.5l-1 1.2c0 0.7-0.2 1.6-1 1.7-0.4 0.1-1.2-0.2-1.8 0.4-0.3 0.4 0.7 1.2-0.1 0.6-0.7-0.5-1.4 0-2.2 0.2-0.6 0.2 0.4 0.8 0.6 1.2 0.2 0.4 0.4 0.8 0.3 1.3l-1.1-1.2c-1.3 0.7-2.1 2-3.2 3-0.5 0.4-0.3 1.1-0.3 1.7-0.7 0-1.5-0.2-1.9 0.2-0.3 0.4-0.2 1-0.2 1.6-1-0.1-1.1-1.6-2-1.3-0.9 0.2-1.9 0.3-2.7 0.8 0.6 1.2-1 0.5-0.8 0.7-1.5-0.9-2.8-1.6-4.4-1-3.4-1.1-7.6-0.6-10.7-0.2 0-0.5 0.1-1-0.1-1.1-0.2 0.5-0.8 0.3-0.7 0.3-1.9-1.3-3.8-2.1-5.8-3.2-1.8 0.2-3.5-0.7-4-1.2-1.4-1.3-3-0.6-4.3-0.9-2.8-0.7-3.8-3.6-4.1-5.6-0.2-1-1-1.4-1.3-1.3-1.3-4.2-3.3-8-4.9-11.9-0.4-1-0.3-2-0.3-3.1 0.5 0.2 1 0.1 0.9-0.6-0.5-3.3-1.7-5.8-3-8.2 0.7-3.4 0.8-7.4 2.4-10.4 1.4-2.7 4-4.1 5.8-6.4 0.6-0.8 0.6-1.9 1.2-2.6 2-2 4-4.1 6.2-5.9 1-0.8 2.2 0 3.7-0.3 0.5-1.8 2.5-3.4 4.4-2.9 0.8 0.2 2.4-1.9 2.9-2.1 0.8-0.3 0.4 0.8 0.4 1.5 1.9-1.5 4.5-2.3 6.9-3.2" fill="black" fill-rule="nonzero" stroke="none" stroke-width="1" stroke-linecap="butt" stroke-linejoin="miter" stroke-miterlimit="10" stroke-dasharray="" stroke-dashoffset="0" font-family="none" font-weight="none" font-size="none" text-anchor="none" style="mix-blend-mode: normal"></path>
</g><g transform="matrix(1,0,0,1,123.02727027056677,90)"><svg viewBox="0 0 73.94545945886645 180" height="180" width="73.94545945886645"><g><svg viewBox="0 0 73.94545945886645 180" height="180" width="73.94545945886645"><g><svg viewBox="0 0 146.88963210702343 357.5626410702341" height="180" width="73.94545945886645"><g transform="matrix(1,0,0,1,0,177.56264107023415)"><svg viewBox="0 0 146.88963210702343 180" height="180" width="146.88963210702343"><g id="SvgjsG1433"><svg viewBox="0 0 146.88963210702343 180" height="180" width="146.88963210702343" id="SvgjsSvg1432"><g><svg viewBox="0 0 146.88963210702343 180" height="180" width="146.88963210702343"><g transform="matrix(1,0,0,1,0,0)"><svg width="146.88963210702343" viewBox="1.8 -35.2 36.6 44.85" height="180" data-palette-color="url(#a0e18fa6-cf5c-46a5-a3ab-484378b9a962)"><path d="M13.6-35.2Q15.4-35.2 17.5-34.75L17.5-34.75 17.2-31.65 16.9-31.4Q15.1-32.3 13.25-32.3L13.25-32.3Q11.3-32.3 10.25-31.08 9.2-29.85 9.15-27.45L9.15-27.45 9.1-22.85 15.1-22.85 15.25-22.55 15-20.2 9.05-20.2 8.95-10.05 9.2 0 5.25 0 5.55-9.75 5.45-20.2 2-20.2 1.8-20.5 2.05-22.85 5.45-22.85 5.4-26.85Q5.35-30.9 7.5-33.05 9.65-35.2 13.6-35.2L13.6-35.2ZM38.4-20.95Q36.85-20.5 33.8-19.9L33.8-19.9 33.7-19.7Q34.8-17.95 34.8-15.45L34.8-15.45Q34.8-11.8 32.37-9.65 29.95-7.5 25.8-7.5L25.8-7.5Q24.15-7.5 22.7-7.9L22.7-7.9Q21.85-7.25 21.55-6.85 21.25-6.45 21.25-5.95L21.25-5.95Q21.25-4.9 22.55-4.48 23.85-4.05 26.8-3.6L26.8-3.6Q29.7-3.2 31.55-2.7 33.4-2.2 34.75-1.07 36.1 0.05 36.1 2.05L36.1 2.05Q36.1 4.15 34.67 5.9 33.25 7.65 30.77 8.65 28.3 9.65 25.35 9.65L25.35 9.65Q21.35 9.65 19.12 7.83 16.9 6 16.9 3.1L16.9 3.1Q18.1 0.7 21.3-1.25L21.3-1.25 21.3-1.5Q19.5-2.05 18.52-2.98 17.55-3.9 17.55-5.5L17.55-5.5Q18.6-7.25 20.6-8.55L20.6-8.55 20.6-8.75Q19-9.75 18.17-11.38 17.35-13 17.35-15.15L17.35-15.15Q17.35-18.9 19.77-21.03 22.2-23.15 26.25-23.15L26.25-23.15Q28.9-23.15 30.75-22.25L30.75-22.25Q34.2-22.9 38-23.95L38-23.95 38.4-23.65 38.4-20.95ZM26-10.2Q28.5-10.2 29.87-11.6 31.25-13 31.25-15.5L31.25-15.5Q31.25-17.9 29.95-19.2 28.65-20.5 26.2-20.5L26.2-20.5Q23.7-20.5 22.3-19.15 20.9-17.8 20.9-15.3L20.9-15.3Q20.9-12.9 22.22-11.55 23.55-10.2 26-10.2L26-10.2ZM32.6 2.8Q32.6 1.15 30.92 0.5 29.25-0.15 25.85-0.65L25.85-0.65 24.25-0.9Q22.35 0.25 21.37 1.3 20.4 2.35 20.4 3.5L20.4 3.5Q20.4 4.95 21.82 5.9 23.25 6.85 25.8 6.85L25.8 6.85Q28.7 6.85 30.65 5.68 32.6 4.5 32.6 2.8L32.6 2.8Z" opacity="1" transform="matrix(1,0,0,1,0,0)" fill="white" class="wordmark-text-0" id="SvgjsPath1431"></path></svg></g></svg></g></svg></g></svg></g><g transform="matrix(1,0,0,1,28.055919732441467,0)"><svg viewBox="0 0 90.7777926421405 151.29632107023414" height="151.29632107023414" width="90.7777926421405"><g><svg xmlns="http://www.w3.org/2000/svg" xmlns:xlink="http://www.w3.org/1999/xlink" version="1.1" x="0" y="0" viewBox="14 2 36 60" style="enable-background:new 0 0 64 64;" xml:space="preserve" height="151.29632107023414" width="90.7777926421405" class="icon-icon-0" data-fill-palette-color="accent" id="SvgjsSvg1430">
<path d="M45 36h-3v-4H14v25c0 2.8 2.2 5 5 5h18c2.8 0 5-2.2 5-5v-3h3c2.8 0 5-2.2 5-5v-8C50 38.2 47.8 36 45 36zM23.9 54.5l-1.7 1L17.8 48l4.3-7.5 1.7 1L20.2 48 23.9 54.5zM27 55.3L25 54.7l4-14 1.9 0.5L27 55.3zM33.9 55.5l-1.7-1 3.7-6.5-3.7-6.5 1.7-1 4.3 7.5L33.9 55.5zM48 49c0 1.7-1.3 3-3 3h-3V38h3c1.7 0 3 1.3 3 3V49z" fill="black"></path><g fill="black"><path d="M38 30h-2v-2c0-1.1-0.9-2-2-2H20c-2.2 0-4-1.8-4-4s1.8-4 4-4h14c1.1 0 2-0.9 2-2s-0.9-2-2-2H20c-2.2 0-4-1.8-4-4s1.8-4 4-4h14c1.1 0 2-0.9 2-2V2h2v2c0 2.2-1.8 4-4 4H20c-1.1 0-2 0.9-2 2s0.9 2 2 2h14c2.2 0 4 1.8 4 4s-1.8 4-4 4H20c-1.1 0-2 0.9-2 2s0.9 2 2 2h14c2.2 0 4 1.8 4 4V30z" fill="black"></path></g></svg></g></svg></g><g></g></svg></g></svg></g></svg></g></svg></g><defs><mask></mask></defs></svg><rect width="320" height="360" fill="black" stroke="none" visibility="hidden"></rect></g></mask><linearGradient x1="0" x2="1" y1="0.578" y2="0.595" id="a0e18fa6-cf5c-46a5-a3ab-484378b9a962"><stop stop-color="#6ee2f5" offset="0"></stop><stop stop-color="#6454f0" offset="1"></stop></linearGradient><rect width="320.000047" height="360" fill="url(#a0e18fa6-cf5c-46a5-a3ab-484378b9a962)" mask="url(#3608dc76-3275-4c68-b469-fd013c36e808)" data-fill-palette-color="primary"></rect><mask id="3c2ffaca-681c-4734-aa62-d98a577bbbf9"><g id="SvgjsG1453"><svg viewBox="0 0 320 360" height="360" width="320"><g><svg>
</svg></g><g><svg viewBox="0 0 320 360" height="360" width="320"><g><path transform="translate(-74.99272,-51.79039) scale(4.65793,4.65793)" d="M20.6 59.9l0.8 1-0.4-1.3c-0.1-0.6-0.8 0.1-0.4 0.3M21.5 59.3c0.3 0.5 0.6 1 0.6 1.5 0 0.7 0.6 1 1.1 1.2-0.7-0.8-1.1-3-1.7-2.7M59.9 16.9c1.7 0 3.3-0.2 5.1 0.2 4.4 1.1 8.1 3.3 10.6 6.4l7 11.2c0.3 2.8 0.9 5.9 0.8 9.3 0.7 0 0.6-1 1.4-1.2-0.8 2-1.2 4.5-1.4 7.4-0.5-1.6 0-4 0.1-5.3-0.7 1.1-1.1 0.3-1.1-0.2 0.1-0.8-0.3-0.7-0.6-1-1.1-1-1.8-2.1-2.6-3.8 0.5-1.3 0.6-3.2-1-4.2-0.5-0.3-1.1-0.8-1.4-1.6-0.4-1.1-1.1-2.4-0.9-4.1 0.1-0.5-1.5 1.1-2.4 0.4-3.9-2.7-7.8-5.8-12.5-8.4-2.5 0-4.3-0.9-5.2-2-0.8-1-0.2-2.3 1-2.4 0.7 0 1.5-0.2 2.1 0.2 0.1-0.4 0.5-0.9 1-0.9M50 14.6l0.2 0.1c1 0.2 1.5 1.6 2.6 1.1 0 0.7 0.1 1.4-0.1 1.9-0.3 0.8-1.2 0.8-1.9 0.8-6.7-0.4-10.6 2.4-14.7 4.8-1.1 0.7-2.3 1.2-3.2 2.1-4.3 4-9 7.7-10.1 15.1l-0.9 8.2c-0.1 0.9-1.1 1.8-0.9 2.9l0.7 4.9c-0.7-0.7-1.1 0.2-0.9 0.6 0.1 0.3 0.5 1.3 1.1 0.4 0.8 1.5 1.6 4.4 2.7 5.7 3.4 4 7.8 7.6 11.4 11.2 0.9-0.2 1.6-0.2 1.8-0.8 0.3 0.6-0.3 1.2-0.8 1.3 1.6 1 3.4 1.9 5.8 2.1 3.1 0.2 6 0.7 8.7 1.4 1.4-0.4 2.8-0.6 4.3-0.7 0.5 0 0.8-0.8 1.4-1l0.1-1c0.6 0.9 0.5-0.3 0.1-0.9 0.7 0.6 0.9 1.1 1.2 1.5 0-0.3 0.8-1.4 0.8-0.1l0.2-1.3c0.3-0.2 0.4 1.1 0.7 0.2 0.3-0.9 0.9-0.2 1.5-0.5-0.2 0.4-0.1 1.2 0.6 0.7l0.8-0.7c0.5 1.2 1.3 0.7 1.7 0.5 4.4-2.8 8.8-6.1 13-9.4l-0.1 1.3 0.5-1.6c0.5 0.5 0.9 0.1 1.1-0.2 0.6-1 1.4-2 2.7-2.9-1.6 4.3-3.5 7.7-5.9 10.5l-1 1.2c0 0.7-0.2 1.6-1 1.7-0.4 0.1-1.2-0.2-1.8 0.4-0.3 0.4 0.7 1.2-0.1 0.6-0.7-0.5-1.4 0-2.2 0.2-0.6 0.2 0.4 0.8 0.6 1.2 0.2 0.4 0.4 0.8 0.3 1.3l-1.1-1.2c-1.3 0.7-2.1 2-3.2 3-0.5 0.4-0.3 1.1-0.3 1.7-0.7 0-1.5-0.2-1.9 0.2-0.3 0.4-0.2 1-0.2 1.6-1-0.1-1.1-1.6-2-1.3-0.9 0.2-1.9 0.3-2.7 0.8 0.6 1.2-1 0.5-0.8 0.7-1.5-0.9-2.8-1.6-4.4-1-3.4-1.1-7.6-0.6-10.7-0.2 0-0.5 0.1-1-0.1-1.1-0.2 0.5-0.8 0.3-0.7 0.3-1.9-1.3-3.8-2.1-5.8-3.2-1.8 0.2-3.5-0.7-4-1.2-1.4-1.3-3-0.6-4.3-0.9-2.8-0.7-3.8-3.6-4.1-5.6-0.2-1-1-1.4-1.3-1.3-1.3-4.2-3.3-8-4.9-11.9-0.4-1-0.3-2-0.3-3.1 0.5 0.2 1 0.1 0.9-0.6-0.5-3.3-1.7-5.8-3-8.2 0.7-3.4 0.8-7.4 2.4-10.4 1.4-2.7 4-4.1 5.8-6.4 0.6-0.8 0.6-1.9 1.2-2.6 2-2 4-4.1 6.2-5.9 1-0.8 2.2 0 3.7-0.3 0.5-1.8 2.5-3.4 4.4-2.9 0.8 0.2 2.4-1.9 2.9-2.1 0.8-0.3 0.4 0.8 0.4 1.5 1.9-1.5 4.5-2.3 6.9-3.2" fill="black" fill-rule="nonzero" stroke="none" stroke-width="1" stroke-linecap="butt" stroke-linejoin="miter" stroke-miterlimit="10" stroke-dasharray="" stroke-dashoffset="0" font-family="none" font-weight="none" font-size="none" text-anchor="none" style="mix-blend-mode: normal"></path></g><g transform="matrix(1,0,0,1,123.02727027056677,90)"><svg viewBox="0 0 73.94545945886645 180" height="180" width="73.94545945886645"><g><svg viewBox="0 0 73.94545945886645 180" height="180" width="73.94545945886645"><g><svg viewBox="0 0 146.88963210702343 357.5626410702341" height="180" width="73.94545945886645"><g transform="matrix(1,0,0,1,0,177.56264107023415)"><svg viewBox="0 0 146.88963210702343 180" height="180" width="146.88963210702343"><g id="SvgjsG1452"><svg viewBox="0 0 146.88963210702343 180" height="180" width="146.88963210702343" id="SvgjsSvg1451"><g><svg viewBox="0 0 146.88963210702343 180" height="180" width="146.88963210702343"><g transform="matrix(1,0,0,1,0,0)"><svg width="146.88963210702343" viewBox="1.8 -35.2 36.6 44.85" height="180" data-palette-color="url(#a0e18fa6-cf5c-46a5-a3ab-484378b9a962)">
</svg></g></svg></g></svg></g></svg></g><g transform="matrix(1,0,0,1,28.055919732441467,0)"><svg viewBox="0 0 90.7777926421405 151.29632107023414" height="151.29632107023414" width="90.7777926421405"><g><svg xmlns="http://www.w3.org/2000/svg" xmlns:xlink="http://www.w3.org/1999/xlink" version="1.1" x="0" y="0" viewBox="14 2 36 60" style="enable-background:new 0 0 64 64;" xml:space="preserve" height="151.29632107023414" width="90.7777926421405" class="icon-icon-0" data-fill-palette-color="accent" id="SvgjsSvg1450"><path d="M45 36h-3v-4H14v25c0 2.8 2.2 5 5 5h18c2.8 0 5-2.2 5-5v-3h3c2.8 0 5-2.2 5-5v-8C50 38.2 47.8 36 45 36zM23.9 54.5l-1.7 1L17.8 48l4.3-7.5 1.7 1L20.2 48 23.9 54.5zM27 55.3L25 54.7l4-14 1.9 0.5L27 55.3zM33.9 55.5l-1.7-1 3.7-6.5-3.7-6.5 1.7-1 4.3 7.5L33.9 55.5zM48 49c0 1.7-1.3 3-3 3h-3V38h3c1.7 0 3 1.3 3 3V49z" fill="white"></path><g fill="white"><path d="M38 30h-2v-2c0-1.1-0.9-2-2-2H20c-2.2 0-4-1.8-4-4s1.8-4 4-4h14c1.1 0 2-0.9 2-2s-0.9-2-2-2H20c-2.2 0-4-1.8-4-4s1.8-4 4-4h14c1.1 0 2-0.9 2-2V2h2v2c0 2.2-1.8 4-4 4H20c-1.1 0-2 0.9-2 2s0.9 2 2 2h14c2.2 0 4 1.8 4 4s-1.8 4-4 4H20c-1.1 0-2 0.9-2 2s0.9 2 2 2h14c2.2 0 4 1.8 4 4V30z" fill="white"></path></g></svg></g></svg></g><g></g></svg></g></svg></g></svg></g></svg></g><defs><mask></mask></defs><mask><g id="SvgjsG1449"><svg viewBox="0 0 320 360" height="360" width="320"><g><svg></svg></g><g><svg viewBox="0 0 320 360" height="360" width="320"><g><path transform="translate(-74.99272,-51.79039) scale(4.65793,4.65793)" d="M20.6 59.9l0.8 1-0.4-1.3c-0.1-0.6-0.8 0.1-0.4 0.3M21.5 59.3c0.3 0.5 0.6 1 0.6 1.5 0 0.7 0.6 1 1.1 1.2-0.7-0.8-1.1-3-1.7-2.7M59.9 16.9c1.7 0 3.3-0.2 5.1 0.2 4.4 1.1 8.1 3.3 10.6 6.4l7 11.2c0.3 2.8 0.9 5.9 0.8 9.3 0.7 0 0.6-1 1.4-1.2-0.8 2-1.2 4.5-1.4 7.4-0.5-1.6 0-4 0.1-5.3-0.7 1.1-1.1 0.3-1.1-0.2 0.1-0.8-0.3-0.7-0.6-1-1.1-1-1.8-2.1-2.6-3.8 0.5-1.3 0.6-3.2-1-4.2-0.5-0.3-1.1-0.8-1.4-1.6-0.4-1.1-1.1-2.4-0.9-4.1 0.1-0.5-1.5 1.1-2.4 0.4-3.9-2.7-7.8-5.8-12.5-8.4-2.5 0-4.3-0.9-5.2-2-0.8-1-0.2-2.3 1-2.4 0.7 0 1.5-0.2 2.1 0.2 0.1-0.4 0.5-0.9 1-0.9M50 14.6l0.2 0.1c1 0.2 1.5 1.6 2.6 1.1 0 0.7 0.1 1.4-0.1 1.9-0.3 0.8-1.2 0.8-1.9 0.8-6.7-0.4-10.6 2.4-14.7 4.8-1.1 0.7-2.3 1.2-3.2 2.1-4.3 4-9 7.7-10.1 15.1l-0.9 8.2c-0.1 0.9-1.1 1.8-0.9 2.9l0.7 4.9c-0.7-0.7-1.1 0.2-0.9 0.6 0.1 0.3 0.5 1.3 1.1 0.4 0.8 1.5 1.6 4.4 2.7 5.7 3.4 4 7.8 7.6 11.4 11.2 0.9-0.2 1.6-0.2 1.8-0.8 0.3 0.6-0.3 1.2-0.8 1.3 1.6 1 3.4 1.9 5.8 2.1 3.1 0.2 6 0.7 8.7 1.4 1.4-0.4 2.8-0.6 4.3-0.7 0.5 0 0.8-0.8 1.4-1l0.1-1c0.6 0.9 0.5-0.3 0.1-0.9 0.7 0.6 0.9 1.1 1.2 1.5 0-0.3 0.8-1.4 0.8-0.1l0.2-1.3c0.3-0.2 0.4 1.1 0.7 0.2 0.3-0.9 0.9-0.2 1.5-0.5-0.2 0.4-0.1 1.2 0.6 0.7l0.8-0.7c0.5 1.2 1.3 0.7 1.7 0.5 4.4-2.8 8.8-6.1 13-9.4l-0.1 1.3 0.5-1.6c0.5 0.5 0.9 0.1 1.1-0.2 0.6-1 1.4-2 2.7-2.9-1.6 4.3-3.5 7.7-5.9 10.5l-1 1.2c0 0.7-0.2 1.6-1 1.7-0.4 0.1-1.2-0.2-1.8 0.4-0.3 0.4 0.7 1.2-0.1 0.6-0.7-0.5-1.4 0-2.2 0.2-0.6 0.2 0.4 0.8 0.6 1.2 0.2 0.4 0.4 0.8 0.3 1.3l-1.1-1.2c-1.3 0.7-2.1 2-3.2 3-0.5 0.4-0.3 1.1-0.3 1.7-0.7 0-1.5-0.2-1.9 0.2-0.3 0.4-0.2 1-0.2 1.6-1-0.1-1.1-1.6-2-1.3-0.9 0.2-1.9 0.3-2.7 0.8 0.6 1.2-1 0.5-0.8 0.7-1.5-0.9-2.8-1.6-4.4-1-3.4-1.1-7.6-0.6-10.7-0.2 0-0.5 0.1-1-0.1-1.1-0.2 0.5-0.8 0.3-0.7 0.3-1.9-1.3-3.8-2.1-5.8-3.2-1.8 0.2-3.5-0.7-4-1.2-1.4-1.3-3-0.6-4.3-0.9-2.8-0.7-3.8-3.6-4.1-5.6-0.2-1-1-1.4-1.3-1.3-1.3-4.2-3.3-8-4.9-11.9-0.4-1-0.3-2-0.3-3.1 0.5 0.2 1 0.1 0.9-0.6-0.5-3.3-1.7-5.8-3-8.2 0.7-3.4 0.8-7.4 2.4-10.4 1.4-2.7 4-4.1 5.8-6.4 0.6-0.8 0.6-1.9 1.2-2.6 2-2 4-4.1 6.2-5.9 1-0.8 2.2 0 3.7-0.3 0.5-1.8 2.5-3.4 4.4-2.9 0.8 0.2 2.4-1.9 2.9-2.1 0.8-0.3 0.4 0.8 0.4 1.5 1.9-1.5 4.5-2.3 6.9-3.2" fill="black" fill-rule="nonzero" stroke="none" stroke-width="1" stroke-linecap="butt" stroke-linejoin="miter" stroke-miterlimit="10" stroke-dasharray="" stroke-dashoffset="0" font-family="none" font-weight="none" font-size="none" text-anchor="none" style="mix-blend-mode: normal">
</path></g><g transform="matrix(1,0,0,1,123.02727027056677,90)"><svg viewBox="0 0 73.94545945886645 180" height="180" width="73.94545945886645"><g><svg viewBox="0 0 73.94545945886645 180" height="180" width="73.94545945886645"><g><svg viewBox="0 0 146.88963210702343 357.5626410702341" height="180" width="73.94545945886645"><g transform="matrix(1,0,0,1,0,177.56264107023415)"><svg viewBox="0 0 146.88963210702343 180" height="180" width="146.88963210702343"><g id="SvgjsG1448"><svg viewBox="0 0 146.88963210702343 180" height="180" width="146.88963210702343" id="SvgjsSvg1447"><g><svg viewBox="0 0 146.88963210702343 180" height="180" width="146.88963210702343"><g transform="matrix(1,0,0,1,0,0)"><svg width="146.88963210702343" viewBox="1.8 -35.2 36.6 44.85" height="180" data-palette-color="url(#a0e18fa6-cf5c-46a5-a3ab-484378b9a962)"><path d="M13.6-35.2Q15.4-35.2 17.5-34.75L17.5-34.75 17.2-31.65 16.9-31.4Q15.1-32.3 13.25-32.3L13.25-32.3Q11.3-32.3 10.25-31.08 9.2-29.85 9.15-27.45L9.15-27.45 9.1-22.85 15.1-22.85 15.25-22.55 15-20.2 9.05-20.2 8.95-10.05 9.2 0 5.25 0 5.55-9.75 5.45-20.2 2-20.2 1.8-20.5 2.05-22.85 5.45-22.85 5.4-26.85Q5.35-30.9 7.5-33.05 9.65-35.2 13.6-35.2L13.6-35.2ZM38.4-20.95Q36.85-20.5 33.8-19.9L33.8-19.9 33.7-19.7Q34.8-17.95 34.8-15.45L34.8-15.45Q34.8-11.8 32.37-9.65 29.95-7.5 25.8-7.5L25.8-7.5Q24.15-7.5 22.7-7.9L22.7-7.9Q21.85-7.25 21.55-6.85 21.25-6.45 21.25-5.95L21.25-5.95Q21.25-4.9 22.55-4.48 23.85-4.05 26.8-3.6L26.8-3.6Q29.7-3.2 31.55-2.7 33.4-2.2 34.75-1.07 36.1 0.05 36.1 2.05L36.1 2.05Q36.1 4.15 34.67 5.9 33.25 7.65 30.77 8.65 28.3 9.65 25.35 9.65L25.35 9.65Q21.35 9.65 19.12 7.83 16.9 6 16.9 3.1L16.9 3.1Q18.1 0.7 21.3-1.25L21.3-1.25 21.3-1.5Q19.5-2.05 18.52-2.98 17.55-3.9 17.55-5.5L17.55-5.5Q18.6-7.25 20.6-8.55L20.6-8.55 20.6-8.75Q19-9.75 18.17-11.38 17.35-13 17.35-15.15L17.35-15.15Q17.35-18.9 19.77-21.03 22.2-23.15 26.25-23.15L26.25-23.15Q28.9-23.15 30.75-22.25L30.75-22.25Q34.2-22.9 38-23.95L38-23.95 38.4-23.65 38.4-20.95ZM26-10.2Q28.5-10.2 29.87-11.6 31.25-13 31.25-15.5L31.25-15.5Q31.25-17.9 29.95-19.2 28.65-20.5 26.2-20.5L26.2-20.5Q23.7-20.5 22.3-19.15 20.9-17.8 20.9-15.3L20.9-15.3Q20.9-12.9 22.22-11.55 23.55-10.2 26-10.2L26-10.2ZM32.6 2.8Q32.6 1.15 30.92 0.5 29.25-0.15 25.85-0.65L25.85-0.65 24.25-0.9Q22.35 0.25 21.37 1.3 20.4 2.35 20.4 3.5L20.4 3.5Q20.4 4.95 21.82 5.9 23.25 6.85 25.8 6.85L25.8 6.85Q28.7 6.85 30.65 5.68 32.6 4.5 32.6 2.8L32.6 2.8Z" opacity="1" transform="matrix(1,0,0,1,0,0)" fill="black" class="wordmark-text-0" id="SvgjsPath1446"></path></svg></g></svg></g></svg></g></svg></g><g transform="matrix(1,0,0,1,28.055919732441467,0)"><svg viewBox="0 0 90.7777926421405 151.29632107023414" height="151.29632107023414" width="90.7777926421405"><g><svg xmlns="http://www.w3.org/2000/svg" xmlns:xlink="http://www.w3.org/1999/xlink" version="1.1" x="0" y="0" viewBox="14 2 36 60" style="enable-background:new 0 0 64 64;" xml:space="preserve" height="151.29632107023414" width="90.7777926421405" class="icon-icon-0" data-fill-palette-color="accent" id="SvgjsSvg1445"><path d="M45 36h-3v-4H14v25c0 2.8 2.2 5 5 5h18c2.8 0 5-2.2 5-5v-3h3c2.8 0 5-2.2 5-5v-8C50 38.2 47.8 36 45 36zM23.9 54.5l-1.7 1L17.8 48l4.3-7.5 1.7 1L20.2 48 23.9 54.5zM27 55.3L25 54.7l4-14 1.9 0.5L27 55.3zM33.9 55.5l-1.7-1 3.7-6.5-3.7-6.5 1.7-1 4.3 7.5L33.9 55.5zM48 49c0 1.7-1.3 3-3 3h-3V38h3c1.7 0 3 1.3 3 3V49z" fill="black"></path><g fill="black"><path d="M38 30h-2v-2c0-1.1-0.9-2-2-2H20c-2.2 0-4-1.8-4-4s1.8-4 4-4h14c1.1 0 2-0.9 2-2s-0.9-2-2-2H20c-2.2 0-4-1.8-4-4s1.8-4 4-4h14c1.1 0 2-0.9 2-2V2h2v2c0 2.2-1.8 4-4 4H20c-1.1 0-2 0.9-2 2s0.9 2 2 2h14c2.2 0 4 1.8 4 4s-1.8 4-4 4H20c-1.1 0-2 0.9-2 2s0.9 2 2 2h14c2.2 0 4 1.8 4 4V30z" fill="black"></path></g></svg></g></svg></g><g></g></svg></g></svg></g></svg></g></svg></g><defs><mask></mask></defs></svg><rect width="320" height="360" fill="black" stroke="none" visibility="hidden"></rect></g>
</mask></svg><rect width="320" height="360" fill="black" stroke="none" visibility="hidden"></rect></g></mask><linearGradient x1="0" x2="1" y1="0.578" y2="0.595" id="2c257c0b-06e0-4fee-8a22-ba66d7a6c06e"><stop stop-color="#6ee2f5" offset="0"></stop><stop stop-color="#6454f0" offset="1"></stop></linearGradient><rect width="320.000094" height="360" fill="url(#2c257c0b-06e0-4fee-8a22-ba66d7a6c06e)" mask="url(#3c2ffaca-681c-4734-aa62-d98a577bbbf9)" data-fill-palette-color="accent"></rect><mask id="461b9bf4-91cb-4a39-b6e9-031094ba29a5"><g id="SvgjsG1471"><svg viewBox="0 0 320 360" height="360" width="320"><g><svg></svg></g><g><svg viewBox="0 0 320 360" height="360" width="320"><g><path transform="translate(-74.99272,-51.79039) scale(4.65793,4.65793)" d="M20.6 59.9l0.8 1-0.4-1.3c-0.1-0.6-0.8 0.1-0.4 0.3M21.5 59.3c0.3 0.5 0.6 1 0.6 1.5 0 0.7 0.6 1 1.1 1.2-0.7-0.8-1.1-3-1.7-2.7M59.9 16.9c1.7 0 3.3-0.2 5.1 0.2 4.4 1.1 8.1 3.3 10.6 6.4l7 11.2c0.3 2.8 0.9 5.9 0.8 9.3 0.7 0 0.6-1 1.4-1.2-0.8 2-1.2 4.5-1.4 7.4-0.5-1.6 0-4 0.1-5.3-0.7 1.1-1.1 0.3-1.1-0.2 0.1-0.8-0.3-0.7-0.6-1-1.1-1-1.8-2.1-2.6-3.8 0.5-1.3 0.6-3.2-1-4.2-0.5-0.3-1.1-0.8-1.4-1.6-0.4-1.1-1.1-2.4-0.9-4.1 0.1-0.5-1.5 1.1-2.4 0.4-3.9-2.7-7.8-5.8-12.5-8.4-2.5 0-4.3-0.9-5.2-2-0.8-1-0.2-2.3 1-2.4 0.7 0 1.5-0.2 2.1 0.2 0.1-0.4 0.5-0.9 1-0.9M50 14.6l0.2 0.1c1 0.2 1.5 1.6 2.6 1.1 0 0.7 0.1 1.4-0.1 1.9-0.3 0.8-1.2 0.8-1.9 0.8-6.7-0.4-10.6 2.4-14.7 4.8-1.1 0.7-2.3 1.2-3.2 2.1-4.3 4-9 7.7-10.1 15.1l-0.9 8.2c-0.1 0.9-1.1 1.8-0.9 2.9l0.7 4.9c-0.7-0.7-1.1 0.2-0.9 0.6 0.1 0.3 0.5 1.3 1.1 0.4 0.8 1.5 1.6 4.4 2.7 5.7 3.4 4 7.8 7.6 11.4 11.2 0.9-0.2 1.6-0.2 1.8-0.8 0.3 0.6-0.3 1.2-0.8 1.3 1.6 1 3.4 1.9 5.8 2.1 3.1 0.2 6 0.7 8.7 1.4 1.4-0.4 2.8-0.6 4.3-0.7 0.5 0 0.8-0.8 1.4-1l0.1-1c0.6 0.9 0.5-0.3 0.1-0.9 0.7 0.6 0.9 1.1 1.2 1.5 0-0.3 0.8-1.4 0.8-0.1l0.2-1.3c0.3-0.2 0.4 1.1 0.7 0.2 0.3-0.9 0.9-0.2 1.5-0.5-0.2 0.4-0.1 1.2 0.6 0.7l0.8-0.7c0.5 1.2 1.3 0.7 1.7 0.5 4.4-2.8 8.8-6.1 13-9.4l-0.1 1.3 0.5-1.6c0.5 0.5 0.9 0.1 1.1-0.2 0.6-1 1.4-2 2.7-2.9-1.6 4.3-3.5 7.7-5.9 10.5l-1 1.2c0 0.7-0.2 1.6-1 1.7-0.4 0.1-1.2-0.2-1.8 0.4-0.3 0.4 0.7 1.2-0.1 0.6-0.7-0.5-1.4 0-2.2 0.2-0.6 0.2 0.4 0.8 0.6 1.2 0.2 0.4 0.4 0.8 0.3 1.3l-1.1-1.2c-1.3 0.7-2.1 2-3.2 3-0.5 0.4-0.3 1.1-0.3 1.7-0.7 0-1.5-0.2-1.9 0.2-0.3 0.4-0.2 1-0.2 1.6-1-0.1-1.1-1.6-2-1.3-0.9 0.2-1.9 0.3-2.7 0.8 0.6 1.2-1 0.5-0.8 0.7-1.5-0.9-2.8-1.6-4.4-1-3.4-1.1-7.6-0.6-10.7-0.2 0-0.5 0.1-1-0.1-1.1-0.2 0.5-0.8 0.3-0.7 0.3-1.9-1.3-3.8-2.1-5.8-3.2-1.8 0.2-3.5-0.7-4-1.2-1.4-1.3-3-0.6-4.3-0.9-2.8-0.7-3.8-3.6-4.1-5.6-0.2-1-1-1.4-1.3-1.3-1.3-4.2-3.3-8-4.9-11.9-0.4-1-0.3-2-0.3-3.1 0.5 0.2 1 0.1 0.9-0.6-0.5-3.3-1.7-5.8-3-8.2 0.7-3.4 0.8-7.4 2.4-10.4 1.4-2.7 4-4.1 5.8-6.4 0.6-0.8 0.6-1.9 1.2-2.6 2-2 4-4.1 6.2-5.9 1-0.8 2.2 0 3.7-0.3 0.5-1.8 2.5-3.4 4.4-2.9 0.8 0.2 2.4-1.9 2.9-2.1 0.8-0.3 0.4 0.8 0.4 1.5 1.9-1.5 4.5-2.3 6.9-3.2" fill="white" fill-rule="nonzero" stroke="none" stroke-width="1" stroke-linecap="butt" stroke-linejoin="miter" stroke-miterlimit="10" stroke-dasharray="" stroke-dashoffset="0" font-family="none" font-weight="none" font-size="none" text-anchor="none" style="mix-blend-mode: normal"></path></g><g transform="matrix(1,0,0,1,123.02727027056677,90)"><svg viewBox="0 0 73.94545945886645 180" height="180" width="73.94545945886645"><g><svg viewBox="0 0 73.94545945886645 180" height="180" width="73.94545945886645"><g><svg viewBox="0 0 146.88963210702343 357.5626410702341" height="180" width="73.94545945886645"><g transform="matrix(1,0,0,1,0,177.56264107023415)"><svg viewBox="0 0 146.88963210702343 180" height="180" width="146.88963210702343"><g id="SvgjsG1470"><svg viewBox="0 0 146.88963210702343 180" height="180" width="146.88963210702343" id="SvgjsSvg1469"><g><svg viewBox="0 0 146.88963210702343 180" height="180" width="146.88963210702343"><g transform="matrix(1,0,0,1,0,0)"><svg width="146.88963210702343" viewBox="1.8 -35.2 36.6 44.85" height="180" data-palette-color="url(#a0e18fa6-cf5c-46a5-a3ab-484378b9a962)"></svg></g></svg></g></svg></g></svg></g><g transform="matrix(1,0,0,1,28.055919732441467,0)"><svg viewBox="0 0 90.7777926421405 151.29632107023414" height="151.29632107023414" width="90.7777926421405"><g><svg xmlns="http://www.w3.org/2000/svg" xmlns:xlink="http://www.w3.org/1999/xlink" version="1.1" x="0" y="0" viewBox="14 2 36 60" style="enable-background:new 0 0 64 64;" xml:space="preserve" height="151.29632107023414" width="90.7777926421405" class="icon-icon-0" data-fill-palette-color="accent" id="SvgjsSvg1468"></svg></g></svg></g><g></g></svg></g></svg></g></svg></g></svg></g><defs><mask></mask></defs><mask><g id="SvgjsG1467"><svg viewBox="0 0 320 360" height="360" width="320">
<g><svg></svg></g><g><svg viewBox="0 0 320 360" height="360" width="320"><g><path transform="translate(-74.99272,-51.79039) scale(4.65793,4.65793)" d="M20.6 59.9l0.8 1-0.4-1.3c-0.1-0.6-0.8 0.1-0.4 0.3M21.5 59.3c0.3 0.5 0.6 1 0.6 1.5 0 0.7 0.6 1 1.1 1.2-0.7-0.8-1.1-3-1.7-2.7M59.9 16.9c1.7 0 3.3-0.2 5.1 0.2 4.4 1.1 8.1 3.3 10.6 6.4l7 11.2c0.3 2.8 0.9 5.9 0.8 9.3 0.7 0 0.6-1 1.4-1.2-0.8 2-1.2 4.5-1.4 7.4-0.5-1.6 0-4 0.1-5.3-0.7 1.1-1.1 0.3-1.1-0.2 0.1-0.8-0.3-0.7-0.6-1-1.1-1-1.8-2.1-2.6-3.8 0.5-1.3 0.6-3.2-1-4.2-0.5-0.3-1.1-0.8-1.4-1.6-0.4-1.1-1.1-2.4-0.9-4.1 0.1-0.5-1.5 1.1-2.4 0.4-3.9-2.7-7.8-5.8-12.5-8.4-2.5 0-4.3-0.9-5.2-2-0.8-1-0.2-2.3 1-2.4 0.7 0 1.5-0.2 2.1 0.2 0.1-0.4 0.5-0.9 1-0.9M50 14.6l0.2 0.1c1 0.2 1.5 1.6 2.6 1.1 0 0.7 0.1 1.4-0.1 1.9-0.3 0.8-1.2 0.8-1.9 0.8-6.7-0.4-10.6 2.4-14.7 4.8-1.1 0.7-2.3 1.2-3.2 2.1-4.3 4-9 7.7-10.1 15.1l-0.9 8.2c-0.1 0.9-1.1 1.8-0.9 2.9l0.7 4.9c-0.7-0.7-1.1 0.2-0.9 0.6 0.1 0.3 0.5 1.3 1.1 0.4 0.8 1.5 1.6 4.4 2.7 5.7 3.4 4 7.8 7.6 11.4 11.2 0.9-0.2 1.6-0.2 1.8-0.8 0.3 0.6-0.3 1.2-0.8 1.3 1.6 1 3.4 1.9 5.8 2.1 3.1 0.2 6 0.7 8.7 1.4 1.4-0.4 2.8-0.6 4.3-0.7 0.5 0 0.8-0.8 1.4-1l0.1-1c0.6 0.9 0.5-0.3 0.1-0.9 0.7 0.6 0.9 1.1 1.2 1.5 0-0.3 0.8-1.4 0.8-0.1l0.2-1.3c0.3-0.2 0.4 1.1 0.7 0.2 0.3-0.9 0.9-0.2 1.5-0.5-0.2 0.4-0.1 1.2 0.6 0.7l0.8-0.7c0.5 1.2 1.3 0.7 1.7 0.5 4.4-2.8 8.8-6.1 13-9.4l-0.1 1.3 0.5-1.6c0.5 0.5 0.9 0.1 1.1-0.2 0.6-1 1.4-2 2.7-2.9-1.6 4.3-3.5 7.7-5.9 10.5l-1 1.2c0 0.7-0.2 1.6-1 1.7-0.4 0.1-1.2-0.2-1.8 0.4-0.3 0.4 0.7 1.2-0.1 0.6-0.7-0.5-1.4 0-2.2 0.2-0.6 0.2 0.4 0.8 0.6 1.2 0.2 0.4 0.4 0.8 0.3 1.3l-1.1-1.2c-1.3 0.7-2.1 2-3.2 3-0.5 0.4-0.3 1.1-0.3 1.7-0.7 0-1.5-0.2-1.9 0.2-0.3 0.4-0.2 1-0.2 1.6-1-0.1-1.1-1.6-2-1.3-0.9 0.2-1.9 0.3-2.7 0.8 0.6 1.2-1 0.5-0.8 0.7-1.5-0.9-2.8-1.6-4.4-1-3.4-1.1-7.6-0.6-10.7-0.2 0-0.5 0.1-1-0.1-1.1-0.2 0.5-0.8 0.3-0.7 0.3-1.9-1.3-3.8-2.1-5.8-3.2-1.8 0.2-3.5-0.7-4-1.2-1.4-1.3-3-0.6-4.3-0.9-2.8-0.7-3.8-3.6-4.1-5.6-0.2-1-1-1.4-1.3-1.3-1.3-4.2-3.3-8-4.9-11.9-0.4-1-0.3-2-0.3-3.1 0.5 0.2 1 0.1 0.9-0.6-0.5-3.3-1.7-5.8-3-8.2 0.7-3.4 0.8-7.4 2.4-10.4 1.4-2.7 4-4.1 5.8-6.4 0.6-0.8 0.6-1.9 1.2-2.6 2-2 4-4.1 6.2-5.9 1-0.8 2.2 0 3.7-0.3 0.5-1.8 2.5-3.4 4.4-2.9 0.8 0.2 2.4-1.9 2.9-2.1 0.8-0.3 0.4 0.8 0.4 1.5 1.9-1.5 4.5-2.3 6.9-3.2" fill="black" fill-rule="nonzero" stroke="none" stroke-width="1" stroke-linecap="butt" stroke-linejoin="miter" stroke-miterlimit="10" stroke-dasharray="" stroke-dashoffset="0" font-family="none" font-weight="none" font-size="none" text-anchor="none" style="mix-blend-mode: normal"></path></g><g transform="matrix(1,0,0,1,123.02727027056677,90)"><svg viewBox="0 0 73.94545945886645 180" height="180" width="73.94545945886645"><g><svg viewBox="0 0 73.94545945886645 180" height="180" width="73.94545945886645"><g><svg viewBox="0 0 146.88963210702343 357.5626410702341" height="180" width="73.94545945886645"><g transform="matrix(1,0,0,1,0,177.56264107023415)"><svg viewBox="0 0 146.88963210702343 180" height="180" width="146.88963210702343"><g id="SvgjsG1466"><svg viewBox="0 0 146.88963210702343 180" height="180" width="146.88963210702343" id="SvgjsSvg1465"><g><svg viewBox="0 0 146.88963210702343 180" height="180" width="146.88963210702343"><g transform="matrix(1,0,0,1,0,0)"><svg width="146.88963210702343" viewBox="1.8 -35.2 36.6 44.85" height="180" data-palette-color="url(#a0e18fa6-cf5c-46a5-a3ab-484378b9a962)"><path d="M13.6-35.2Q15.4-35.2 17.5-34.75L17.5-34.75 17.2-31.65 16.9-31.4Q15.1-32.3 13.25-32.3L13.25-32.3Q11.3-32.3 10.25-31.08 9.2-29.85 9.15-27.45L9.15-27.45 9.1-22.85 15.1-22.85 15.25-22.55 15-20.2 9.05-20.2 8.95-10.05 9.2 0 5.25 0 5.55-9.75 5.45-20.2 2-20.2 1.8-20.5 2.05-22.85 5.45-22.85 5.4-26.85Q5.35-30.9 7.5-33.05 9.65-35.2 13.6-35.2L13.6-35.2ZM38.4-20.95Q36.85-20.5 33.8-19.9L33.8-19.9 33.7-19.7Q34.8-17.95 34.8-15.45L34.8-15.45Q34.8-11.8 32.37-9.65 29.95-7.5 25.8-7.5L25.8-7.5Q24.15-7.5 22.7-7.9L22.7-7.9Q21.85-7.25 21.55-6.85 21.25-6.45 21.25-5.95L21.25-5.95Q21.25-4.9 22.55-4.48 23.85-4.05 26.8-3.6L26.8-3.6Q29.7-3.2 31.55-2.7 33.4-2.2 34.75-1.07 36.1 0.05 36.1 2.05L36.1 2.05Q36.1 4.15 34.67 5.9 33.25 7.65 30.77 8.65 28.3 9.65 25.35 9.65L25.35 9.65Q21.35 9.65 19.12 7.83 16.9 6 16.9 3.1L16.9 3.1Q18.1 0.7 21.3-1.25L21.3-1.25 21.3-1.5Q19.5-2.05 18.52-2.98 17.55-3.9 17.55-5.5L17.55-5.5Q18.6-7.25 20.6-8.55L20.6-8.55 20.6-8.75Q19-9.75 18.17-11.38 17.35-13 17.35-15.15L17.35-15.15Q17.35-18.9 19.77-21.03 22.2-23.15 26.25-23.15L26.25-23.15Q28.9-23.15 30.75-22.25L30.75-22.25Q34.2-22.9 38-23.95L38-23.95 38.4-23.65 38.4-20.95ZM26-10.2Q28.5-10.2 29.87-11.6 31.25-13 31.25-15.5L31.25-15.5Q31.25-17.9 29.95-19.2 28.65-20.5 26.2-20.5L26.2-20.5Q23.7-20.5 22.3-19.15 20.9-17.8 20.9-15.3L20.9-15.3Q20.9-12.9 22.22-11.55 23.55-10.2 26-10.2L26-10.2ZM32.6 2.8Q32.6 1.15 30.92 0.5 29.25-0.15 25.85-0.65L25.85-0.65 24.25-0.9Q22.35 0.25 21.37 1.3 20.4 2.35 20.4 3.5L20.4 3.5Q20.4 4.95 21.82 5.9 23.25 6.85 25.8 6.85L25.8 6.85Q28.7 6.85 30.65 5.68 32.6 4.5 32.6 2.8L32.6 2.8Z" opacity="1" transform="matrix(1,0,0,1,0,0)" fill="black" class="wordmark-text-0" id="SvgjsPath1464"></path></svg></g></svg></g></svg></g></svg></g><g transform="matrix(1,0,0,1,28.055919732441467,0)"><svg viewBox="0 0 90.7777926421405 151.29632107023414" height="151.29632107023414" width="90.7777926421405"><g><svg xmlns="http://www.w3.org/2000/svg" xmlns:xlink="http://www.w3.org/1999/xlink" version="1.1" x="0" y="0" viewBox="14 2 36 60" style="enable-background:new 0 0 64 64;" xml:space="preserve" height="151.29632107023414" width="90.7777926421405" class="icon-icon-0" data-fill-palette-color="accent" id="SvgjsSvg1463"><path d="M45 36h-3v-4H14v25c0 2.8 2.2 5 5 5h18c2.8 0 5-2.2 5-5v-3h3c2.8 0 5-2.2 5-5v-8C50 38.2 47.8 36 45 36zM23.9 54.5l-1.7 1L17.8 48l4.3-7.5 1.7 1L20.2 48 23.9 54.5zM27 55.3L25 54.7l4-14 1.9 0.5L27 55.3zM33.9 55.5l-1.7-1 3.7-6.5-3.7-6.5 1.7-1 4.3 7.5L33.9 55.5zM48 49c0 1.7-1.3 3-3 3h-3V38h3c1.7 0 3 1.3 3 3V49z" fill="black"></path><g fill="black"><path d="M38 30h-2v-2c0-1.1-0.9-2-2-2H20c-2.2 0-4-1.8-4-4s1.8-4 4-4h14c1.1 0 2-0.9 2-2s-0.9-2-2-2H20c-2.2 0-4-1.8-4-4s1.8-4 4-4h14c1.1 0 2-0.9 2-2V2h2v2c0 2.2-1.8 4-4 4H20c-1.1 0-2 0.9-2 2s0.9 2 2 2h14c2.2 0 4 1.8 4 4s-1.8 4-4 4H20c-1.1 0-2 0.9-2 2s0.9 2 2 2h14c2.2 0 4 1.8 4 4V30z" fill="black"></path></g></svg></g></svg></g><g></g></svg></g></svg></g></svg></g></svg></g><defs><mask></mask></defs></svg><rect width="320" height="360" fill="black" stroke="none" visibility="hidden"></rect></g></mask><mask><g id="SvgjsG1462"><svg viewBox="0 0 320 360" height="360" width="320"><g><svg></svg></g><g><svg viewBox="0 0 320 360" height="360" width="320"><g><path transform="translate(-74.99272,-51.79039) scale(4.65793,4.65793)" d="M20.6 59.9l0.8 1-0.4-1.3c-0.1-0.6-0.8 0.1-0.4 0.3M21.5 59.3c0.3 0.5 0.6 1 0.6 1.5 0 0.7 0.6 1 1.1 1.2-0.7-0.8-1.1-3-1.7-2.7M59.9 16.9c1.7 0 3.3-0.2 5.1 0.2 4.4 1.1 8.1 3.3 10.6 6.4l7 11.2c0.3 2.8 0.9 5.9 0.8 9.3 0.7 0 0.6-1 1.4-1.2-0.8 2-1.2 4.5-1.4 7.4-0.5-1.6 0-4 0.1-5.3-0.7 1.1-1.1 0.3-1.1-0.2 0.1-0.8-0.3-0.7-0.6-1-1.1-1-1.8-2.1-2.6-3.8 0.5-1.3 0.6-3.2-1-4.2-0.5-0.3-1.1-0.8-1.4-1.6-0.4-1.1-1.1-2.4-0.9-4.1 0.1-0.5-1.5 1.1-2.4 0.4-3.9-2.7-7.8-5.8-12.5-8.4-2.5 0-4.3-0.9-5.2-2-0.8-1-0.2-2.3 1-2.4 0.7 0 1.5-0.2 2.1 0.2 0.1-0.4 0.5-0.9 1-0.9M50 14.6l0.2 0.1c1 0.2 1.5 1.6 2.6 1.1 0 0.7 0.1 1.4-0.1 1.9-0.3 0.8-1.2 0.8-1.9 0.8-6.7-0.4-10.6 2.4-14.7 4.8-1.1 0.7-2.3 1.2-3.2 2.1-4.3 4-9 7.7-10.1 15.1l-0.9 8.2c-0.1 0.9-1.1 1.8-0.9 2.9l0.7 4.9c-0.7-0.7-1.1 0.2-0.9 0.6 0.1 0.3 0.5 1.3 1.1 0.4 0.8 1.5 1.6 4.4 2.7 5.7 3.4 4 7.8 7.6 11.4 11.2 0.9-0.2 1.6-0.2 1.8-0.8 0.3 0.6-0.3 1.2-0.8 1.3 1.6 1 3.4 1.9 5.8 2.1 3.1 0.2 6 0.7 8.7 1.4 1.4-0.4 2.8-0.6 4.3-0.7 0.5 0 0.8-0.8 1.4-1l0.1-1c0.6 0.9 0.5-0.3 0.1-0.9 0.7 0.6 0.9 1.1 1.2 1.5 0-0.3 0.8-1.4 0.8-0.1l0.2-1.3c0.3-0.2 0.4 1.1 0.7 0.2 0.3-0.9 0.9-0.2 1.5-0.5-0.2 0.4-0.1 1.2 0.6 0.7l0.8-0.7c0.5 1.2 1.3 0.7 1.7 0.5 4.4-2.8 8.8-6.1 13-9.4l-0.1 1.3 0.5-1.6c0.5 0.5 0.9 0.1 1.1-0.2 0.6-1 1.4-2 2.7-2.9-1.6 4.3-3.5 7.7-5.9 10.5l-1 1.2c0 0.7-0.2 1.6-1 1.7-0.4 0.1-1.2-0.2-1.8 0.4-0.3 0.4 0.7 1.2-0.1 0.6-0.7-0.5-1.4 0-2.2 0.2-0.6 0.2 0.4 0.8 0.6 1.2 0.2 0.4 0.4 0.8 0.3 1.3l-1.1-1.2c-1.3 0.7-2.1 2-3.2 3-0.5 0.4-0.3 1.1-0.3 1.7-0.7 0-1.5-0.2-1.9 0.2-0.3 0.4-0.2 1-0.2 1.6-1-0.1-1.1-1.6-2-1.3-0.9 0.2-1.9 0.3-2.7 0.8 0.6 1.2-1 0.5-0.8 0.7-1.5-0.9-2.8-1.6-4.4-1-3.4-1.1-7.6-0.6-10.7-0.2 0-0.5 0.1-1-0.1-1.1-0.2 0.5-0.8 0.3-0.7 0.3-1.9-1.3-3.8-2.1-5.8-3.2-1.8 0.2-3.5-0.7-4-1.2-1.4-1.3-3-0.6-4.3-0.9-2.8-0.7-3.8-3.6-4.1-5.6-0.2-1-1-1.4-1.3-1.3-1.3-4.2-3.3-8-4.9-11.9-0.4-1-0.3-2-0.3-3.1 0.5 0.2 1 0.1 0.9-0.6-0.5-3.3-1.7-5.8-3-8.2 0.7-3.4 0.8-7.4 2.4-10.4 1.4-2.7 4-4.1 5.8-6.4 0.6-0.8 0.6-1.9 1.2-2.6 2-2 4-4.1 6.2-5.9 1-0.8 2.2 0 3.7-0.3 0.5-1.8 2.5-3.4 4.4-2.9 0.8 0.2 2.4-1.9 2.9-2.1 0.8-0.3 0.4 0.8 0.4 1.5 1.9-1.5 4.5-2.3 6.9-3.2" fill="black" fill-rule="nonzero" stroke="none" stroke-width="1" stroke-linecap="butt" stroke-linejoin="miter" stroke-miterlimit="10" stroke-dasharray="" stroke-dashoffset="0" font-family="none" font-weight="none" font-size="none" text-anchor="none" style="mix-blend-mode: normal"></path></g><g transform="matrix(1,0,0,1,123.02727027056677,90)"><svg viewBox="0 0 73.94545945886645 180" height="180" width="73.94545945886645"><g><svg viewBox="0 0 73.94545945886645 180" height="180" width="73.94545945886645"><g><svg viewBox="0 0 146.88963210702343 357.5626410702341" height="180" width="73.94545945886645"><g transform="matrix(1,0,0,1,0,177.56264107023415)"><svg viewBox="0 0 146.88963210702343 180" height="180" width="146.88963210702343"><g id="SvgjsG1461"><svg viewBox="0 0 146.88963210702343 180" height="180" width="146.88963210702343" id="SvgjsSvg1460"><g><svg viewBox="0 0 146.88963210702343 180" height="180" width="146.88963210702343"><g transform="matrix(1,0,0,1,0,0)"><svg width="146.88963210702343" viewBox="1.8 -35.2 36.6 44.85" height="180" data-palette-color="url(#a0e18fa6-cf5c-46a5-a3ab-484378b9a962)"></svg></g></svg></g></svg></g></svg></g><g transform="matrix(1,0,0,1,28.055919732441467,0)"><svg viewBox="0 0 90.7777926421405 151.29632107023414" height="151.29632107023414" width="90.7777926421405"><g><svg xmlns="http://www.w3.org/2000/svg" xmlns:xlink="http://www.w3.org/1999/xlink" version="1.1" x="0" y="0" viewBox="14 2 36 60" style="enable-background:new 0 0 64 64;" xml:space="preserve" height="151.29632107023414" width="90.7777926421405" class="icon-icon-0" data-fill-palette-color="accent" id="SvgjsSvg1459"><path d="M45 36h-3v-4H14v25c0 2.8 2.2 5 5 5h18c2.8 0 5-2.2 5-5v-3h3c2.8 0 5-2.2 5-5v-8C50 38.2 47.8 36 45 36zM23.9 54.5l-1.7 1L17.8 48l4.3-7.5 1.7 1L20.2 48 23.9 54.5zM27 55.3L25 54.7l4-14 1.9 0.5L27 55.3zM33.9 55.5l-1.7-1 3.7-6.5-3.7-6.5 1.7-1 4.3 7.5L33.9 55.5zM48 49c0 1.7-1.3 3-3 3h-3V38h3c1.7 0 3 1.3 3 3V49z" fill="black"></path><g fill="black"><path d="M38 30h-2v-2c0-1.1-0.9-2-2-2H20c-2.2 0-4-1.8-4-4s1.8-4 4-4h14c1.1 0 2-0.9 2-2s-0.9-2-2-2H20c-2.2 0-4-1.8-4-4s1.8-4 4-4h14c1.1 0 2-0.9 2-2V2h2v2c0 2.2-1.8 4-4 4H20c-1.1 0-2 0.9-2 2s0.9 2 2 2h14c2.2 0 4 1.8 4 4s-1.8 4-4 4H20c-1.1 0-2 0.9-2 2s0.9 2 2 2h14c2.2 0 4 1.8 4 4V30z" fill="black"></path></g></svg></g></svg></g><g></g></svg></g></svg></g></svg></g></svg></g><defs><mask></mask></defs><mask><g id="SvgjsG1458"><svg viewBox="0 0 320 360" height="360" width="320"><g><svg></svg></g><g><svg viewBox="0 0 320 360" height="360" width="320"><g><path transform="translate(-74.99272,-51.79039) scale(4.65793,4.65793)" d="M20.6 59.9l0.8 1-0.4-1.3c-0.1-0.6-0.8 0.1-0.4 0.3M21.5 59.3c0.3 0.5 0.6 1 0.6 1.5 0 0.7 0.6 1 1.1 1.2-0.7-0.8-1.1-3-1.7-2.7M59.9 16.9c1.7 0 3.3-0.2 5.1 0.2 4.4 1.1 8.1 3.3 10.6 6.4l7 11.2c0.3 2.8 0.9 5.9 0.8 9.3 0.7 0 0.6-1 1.4-1.2-0.8 2-1.2 4.5-1.4 7.4-0.5-1.6 0-4 0.1-5.3-0.7 1.1-1.1 0.3-1.1-0.2 0.1-0.8-0.3-0.7-0.6-1-1.1-1-1.8-2.1-2.6-3.8 0.5-1.3 0.6-3.2-1-4.2-0.5-0.3-1.1-0.8-1.4-1.6-0.4-1.1-1.1-2.4-0.9-4.1 0.1-0.5-1.5 1.1-2.4 0.4-3.9-2.7-7.8-5.8-12.5-8.4-2.5 0-4.3-0.9-5.2-2-0.8-1-0.2-2.3 1-2.4 0.7 0 1.5-0.2 2.1 0.2 0.1-0.4 0.5-0.9 1-0.9M50 14.6l0.2 0.1c1 0.2 1.5 1.6 2.6 1.1 0 0.7 0.1 1.4-0.1 1.9-0.3 0.8-1.2 0.8-1.9 0.8-6.7-0.4-10.6 2.4-14.7 4.8-1.1 0.7-2.3 1.2-3.2 2.1-4.3 4-9 7.7-10.1 15.1l-0.9 8.2c-0.1 0.9-1.1 1.8-0.9 2.9l0.7 4.9c-0.7-0.7-1.1 0.2-0.9 0.6 0.1 0.3 0.5 1.3 1.1 0.4 0.8 1.5 1.6 4.4 2.7 5.7 3.4 4 7.8 7.6 11.4 11.2 0.9-0.2 1.6-0.2 1.8-0.8 0.3 0.6-0.3 1.2-0.8 1.3 1.6 1 3.4 1.9 5.8 2.1 3.1 0.2 6 0.7 8.7 1.4 1.4-0.4 2.8-0.6 4.3-0.7 0.5 0 0.8-0.8 1.4-1l0.1-1c0.6 0.9 0.5-0.3 0.1-0.9 0.7 0.6 0.9 1.1 1.2 1.5 0-0.3 0.8-1.4 0.8-0.1l0.2-1.3c0.3-0.2 0.4 1.1 0.7 0.2 0.3-0.9 0.9-0.2 1.5-0.5-0.2 0.4-0.1 1.2 0.6 0.7l0.8-0.7c0.5 1.2 1.3 0.7 1.7 0.5 4.4-2.8 8.8-6.1 13-9.4l-0.1 1.3 0.5-1.6c0.5 0.5 0.9 0.1 1.1-0.2 0.6-1 1.4-2 2.7-2.9-1.6 4.3-3.5 7.7-5.9 10.5l-1 1.2c0 0.7-0.2 1.6-1 1.7-0.4 0.1-1.2-0.2-1.8 0.4-0.3 0.4 0.7 1.2-0.1 0.6-0.7-0.5-1.4 0-2.2 0.2-0.6 0.2 0.4 0.8 0.6 1.2 0.2 0.4 0.4 0.8 0.3 1.3l-1.1-1.2c-1.3 0.7-2.1 2-3.2 3-0.5 0.4-0.3 1.1-0.3 1.7-0.7 0-1.5-0.2-1.9 0.2-0.3 0.4-0.2 1-0.2 1.6-1-0.1-1.1-1.6-2-1.3-0.9 0.2-1.9 0.3-2.7 0.8 0.6 1.2-1 0.5-0.8 0.7-1.5-0.9-2.8-1.6-4.4-1-3.4-1.1-7.6-0.6-10.7-0.2 0-0.5 0.1-1-0.1-1.1-0.2 0.5-0.8 0.3-0.7 0.3-1.9-1.3-3.8-2.1-5.8-3.2-1.8 0.2-3.5-0.7-4-1.2-1.4-1.3-3-0.6-4.3-0.9-2.8-0.7-3.8-3.6-4.1-5.6-0.2-1-1-1.4-1.3-1.3-1.3-4.2-3.3-8-4.9-11.9-0.4-1-0.3-2-0.3-3.1 0.5 0.2 1 0.1 0.9-0.6-0.5-3.3-1.7-5.8-3-8.2 0.7-3.4 0.8-7.4 2.4-10.4 1.4-2.7 4-4.1 5.8-6.4 0.6-0.8 0.6-1.9 1.2-2.6 2-2 4-4.1 6.2-5.9 1-0.8 2.2 0 3.7-0.3 0.5-1.8 2.5-3.4 4.4-2.9 0.8 0.2 2.4-1.9 2.9-2.1 0.8-0.3 0.4 0.8 0.4 1.5 1.9-1.5 4.5-2.3 6.9-3.2" fill="black" fill-rule="nonzero" stroke="none" stroke-width="1" stroke-linecap="butt" stroke-linejoin="miter" stroke-miterlimit="10" stroke-dasharray="" stroke-dashoffset="0" font-family="none" font-weight="none" font-size="none" text-anchor="none" style="mix-blend-mode: normal"></path></g><g transform="matrix(1,0,0,1,123.02727027056677,90)"><svg viewBox="0 0 73.94545945886645 180" height="180" width="73.94545945886645"><g><svg viewBox="0 0 73.94545945886645 180" height="180" width="73.94545945886645"><g><svg viewBox="0 0 146.88963210702343 357.5626410702341" height="180" width="73.94545945886645"><g transform="matrix(1,0,0,1,0,177.56264107023415)"><svg viewBox="0 0 146.88963210702343 180" height="180" width="146.88963210702343"><g id="SvgjsG1457"><svg viewBox="0 0 146.88963210702343 180" height="180" width="146.88963210702343" id="SvgjsSvg1456"><g><svg viewBox="0 0 146.88963210702343 180" height="180" width="146.88963210702343"><g transform="matrix(1,0,0,1,0,0)"><svg width="146.88963210702343" viewBox="1.8 -35.2 36.6 44.85" height="180" data-palette-color="url(#a0e18fa6-cf5c-46a5-a3ab-484378b9a962)"><path d="M13.6-35.2Q15.4-35.2 17.5-34.75L17.5-34.75 17.2-31.65 16.9-31.4Q15.1-32.3 13.25-32.3L13.25-32.3Q11.3-32.3 10.25-31.08 9.2-29.85 9.15-27.45L9.15-27.45 9.1-22.85 15.1-22.85 15.25-22.55 15-20.2 9.05-20.2 8.95-10.05 9.2 0 5.25 0 5.55-9.75 5.45-20.2 2-20.2 1.8-20.5 2.05-22.85 5.45-22.85 5.4-26.85Q5.35-30.9 7.5-33.05 9.65-35.2 13.6-35.2L13.6-35.2ZM38.4-20.95Q36.85-20.5 33.8-19.9L33.8-19.9 33.7-19.7Q34.8-17.95 34.8-15.45L34.8-15.45Q34.8-11.8 32.37-9.65 29.95-7.5 25.8-7.5L25.8-7.5Q24.15-7.5 22.7-7.9L22.7-7.9Q21.85-7.25 21.55-6.85 21.25-6.45 21.25-5.95L21.25-5.95Q21.25-4.9 22.55-4.48 23.85-4.05 26.8-3.6L26.8-3.6Q29.7-3.2 31.55-2.7 33.4-2.2 34.75-1.07 36.1 0.05 36.1 2.05L36.1 2.05Q36.1 4.15 34.67 5.9 33.25 7.65 30.77 8.65 28.3 9.65 25.35 9.65L25.35 9.65Q21.35 9.65 19.12 7.83 16.9 6 16.9 3.1L16.9 3.1Q18.1 0.7 21.3-1.25L21.3-1.25 21.3-1.5Q19.5-2.05 18.52-2.98 17.55-3.9 17.55-5.5L17.55-5.5Q18.6-7.25 20.6-8.55L20.6-8.55 20.6-8.75Q19-9.75 18.17-11.38 17.35-13 17.35-15.15L17.35-15.15Q17.35-18.9 19.77-21.03 22.2-23.15 26.25-23.15L26.25-23.15Q28.9-23.15 30.75-22.25L30.75-22.25Q34.2-22.9 38-23.95L38-23.95 38.4-23.65 38.4-20.95ZM26-10.2Q28.5-10.2 29.87-11.6 31.25-13 31.25-15.5L31.25-15.5Q31.25-17.9 29.95-19.2 28.65-20.5 26.2-20.5L26.2-20.5Q23.7-20.5 22.3-19.15 20.9-17.8 20.9-15.3L20.9-15.3Q20.9-12.9 22.22-11.55 23.55-10.2 26-10.2L26-10.2ZM32.6 2.8Q32.6 1.15 30.92 0.5 29.25-0.15 25.85-0.65L25.85-0.65 24.25-0.9Q22.35 0.25 21.37 1.3 20.4 2.35 20.4 3.5L20.4 3.5Q20.4 4.95 21.82 5.9 23.25 6.85 25.8 6.85L25.8 6.85Q28.7 6.85 30.65 5.68 32.6 4.5 32.6 2.8L32.6 2.8Z" opacity="1" transform="matrix(1,0,0,1,0,0)" fill="black" class="wordmark-text-0" id="SvgjsPath1455"></path></svg></g></svg></g></svg></g></svg></g><g transform="matrix(1,0,0,1,28.055919732441467,0)"><svg viewBox="0 0 90.7777926421405 151.29632107023414" height="151.29632107023414" width="90.7777926421405"><g><svg xmlns="http://www.w3.org/2000/svg" xmlns:xlink="http://www.w3.org/1999/xlink" version="1.1" x="0" y="0" viewBox="14 2 36 60" style="enable-background:new 0 0 64 64;" xml:space="preserve" height="151.29632107023414" width="90.7777926421405" class="icon-icon-0" data-fill-palette-color="accent" id="SvgjsSvg1454"><path d="M45 36h-3v-4H14v25c0 2.8 2.2 5 5 5h18c2.8 0 5-2.2 5-5v-3h3c2.8 0 5-2.2 5-5v-8C50 38.2 47.8 36 45 36zM23.9 54.5l-1.7 1L17.8 48l4.3-7.5 1.7 1L20.2 48 23.9 54.5zM27 55.3L25 54.7l4-14 1.9 0.5L27 55.3zM33.9 55.5l-1.7-1 3.7-6.5-3.7-6.5 1.7-1 4.3 7.5L33.9 55.5zM48 49c0 1.7-1.3 3-3 3h-3V38h3c1.7 0 3 1.3 3 3V49z" fill="black"></path><g fill="black"><path d="M38 30h-2v-2c0-1.1-0.9-2-2-2H20c-2.2 0-4-1.8-4-4s1.8-4 4-4h14c1.1 0 2-0.9 2-2s-0.9-2-2-2H20c-2.2 0-4-1.8-4-4s1.8-4 4-4h14c1.1 0 2-0.9 2-2V2h2v2c0 2.2-1.8 4-4 4H20c-1.1 0-2 0.9-2 2s0.9 2 2 2h14c2.2 0 4 1.8 4 4s-1.8 4-4 4H20c-1.1 0-2 0.9-2 2s0.9 2 2 2h14c2.2 0 4 1.8 4 4V30z" fill="black"></path></g></svg></g></svg></g><g></g></svg></g></svg></g></svg></g></svg></g><defs><mask></mask></defs></svg><rect width="320" height="360" fill="black" stroke="none" visibility="hidden"></rect></g></mask></svg><rect width="320" height="360" fill="black" stroke="none" visibility="hidden"></rect></g></mask></svg><rect width="320" height="360" fill="black" stroke="none" visibility="hidden"></rect></g></mask><linearGradient x1="0" x2="1" y1="0.578" y2="0.595" id="a0ef3fbe-72d8-47a4-8026-d51416b2bc7c"><stop stop-color="#6ee2f5" offset="0"></stop><stop stop-color="#6454f0" offset="1"></stop></linearGradient></svg><rect width="320" height="360" fill="none" stroke="none" visibility="hidden">
</rect></g></svg></g>
</svg>
